<svg version="1.1" viewBox="0 0 40 40" class="svg-icon svg-fill" style="width: 40px; height: 40px;"><defs><linearGradient x1="0%" y1="25.77%" x2="100%" y2="74.23%" id="svgicon_call-center_b"><stop stop-color="#C77D0E" offset="0%"></stop><stop stop-color="#F98713" offset="100%"></stop></linearGradient><linearGradient x1="0%" y1="25.77%" x2="100%" y2="74.23%" id="svgicon_call-center_c"><stop stop-color="#F98713" offset="0%"></stop><stop stop-color="#FBAC36" offset="100%"></stop></linearGradient><linearGradient x1="50%" y1="0%" x2="50%" y2="100%" id="svgicon_call-center_f"><stop stop-color="#4B4B4B" offset="0%"></stop><stop offset="100%"></stop></linearGradient><path pid="0" d="M6.83 13.108L2.647 15.16H1.323l1.053-4.123C.89 9.875 0 8.401 0 6.797 0 3.045 4.875 0 10.889 0c6.013 0 10.888 3.044 10.888 6.798s-4.875 6.798-10.888 6.798c-1.435 0-2.805-.173-4.059-.488z" id="svgicon_call-center_a"></path><path pid="1" d="M0 6.084c0-3 2.176-5.168 3.71-5.832C5.241-.41 9.103.39 9.53.866c.427.477 1.048 5.218.852 6.143-.11.525-.774 1.077-1.988 1.656a1 1 0 00-.55 1.097 12.858 12.858 0 001.443 3.897c.813 1.424 1.954 2.861 3.422 4.31l.632-.587a4.094 4.094 0 012.789-1.097c1.037 0 2.04.378 2.819 1.064l3.157 2.778a1 1 0 01.282 1.085c-.49 1.386-1.315 2.368-2.473 2.947-1.333.667-3.068.937-5.206.81-3 0-8.105-3.52-11-8.217C.814 12.054 0 9.084 0 6.084z" id="svgicon_call-center_e"></path></defs><g fill="none" fill-rule="evenodd"><circle pid="2" fill-opacity=".03" fill="#000" cx="20" cy="20" r="20"></circle><ellipse pid="3" fill="#E4E4E4" cx="20" cy="36.64" rx="20" ry="1.28"></ellipse><g transform="translate(15.71 7)"><mask id="svgicon_call-center_d" fill="#fff"><use xlink:href="#svgicon_call-center_a"></use></mask><use fill="url(#svgicon_call-center_b)" xlink:href="#svgicon_call-center_a"></use><path pid="4" d="M8.154 13.108L3.97 15.16H2.647L3.7 11.037c-1.487-1.162-2.377-2.636-2.377-4.24C1.323 3.045 6.2 0 12.213 0 18.225 0 23.1 3.044 23.1 6.798s-4.875 6.798-10.889 6.798c-1.434 0-2.804-.173-4.058-.488z" fill="url(#svgicon_call-center_c)" mask="url(#svgicon_call-center_d)"></path><circle pid="5" fill="#CF3B00" opacity=".413" mask="url(#svgicon_call-center_d)" cx="7.219" cy="6.377" r="1.203"></circle><circle pid="6" fill="#CF3B00" opacity=".413" mask="url(#svgicon_call-center_d)" cx="11.069" cy="6.377" r="1.203"></circle><circle pid="7" fill="#CF3B00" opacity=".413" mask="url(#svgicon_call-center_d)" cx="14.919" cy="6.377" r="1.203"></circle></g><g transform="translate(2 11.03)"><mask id="svgicon_call-center_g" fill="#fff"><use xlink:href="#svgicon_call-center_e"></use></mask><use fill="url(#svgicon_call-center_f)" xlink:href="#svgicon_call-center_e"></use><path pid="8" d="M2.71 6.084c0-3 2.175-5.168 3.708-5.832C7.951-.41 11.813.39 12.24.866c.426.477 1.047 5.218.852 6.143-.112.525-.775 1.077-1.99 1.656a1 1 0 00-.55 1.097 12.858 12.858 0 001.444 3.897c.813 1.424 1.954 2.861 3.422 4.31l.632-.587a4.094 4.094 0 012.789-1.097c1.038 0 2.04.378 2.819 1.064l3.157 2.778a1 1 0 01.282 1.085c-.49 1.386-1.315 2.368-2.472 2.947-1.334.667-3.07.937-5.207.81-3 0-8.105-3.52-11-8.217C3.523 12.054 2.71 9.084 2.71 6.084z" fill="#414141" mask="url(#svgicon_call-center_g)"></path></g></g></svg>