<svg version="1.1" viewBox="0 0 40 40" class="svg-icon svg-fill" style="width: 40px; height: 40px;"><defs><linearGradient x1="50%" y1="0%" x2="50%" y2="100%" id="svgicon_whatsapp_b"><stop stop-color="#4B4B4B" offset="0%"></stop><stop offset="100%"></stop></linearGradient><linearGradient x1="0%" y1="25.77%" x2="100%" y2="74.23%" id="svgicon_whatsapp_e"><stop stop-color="#C77D0E" offset="0%"></stop><stop stop-color="#F98713" offset="100%"></stop></linearGradient><linearGradient x1="0%" y1="24.995%" x2="100%" y2="75.005%" id="svgicon_whatsapp_f"><stop stop-color="#F98713" offset="0%"></stop><stop stop-color="#FBAC36" offset="100%"></stop></linearGradient><path pid="0" d="M9.083 17.431L3.52 20.16H1.76l1.4-5.483C1.182 13.132 0 11.172 0 9.04 0 4.047 6.483 0 14.48 0c7.997 0 14.48 4.047 14.48 9.04 0 4.993-6.483 9.04-14.48 9.04-1.908 0-3.73-.23-5.397-.649z" id="svgicon_whatsapp_a"></path><path pid="1" d="M9.083 17.431L3.52 20.16H1.76l1.4-5.483C1.182 13.132 0 11.172 0 9.04 0 4.047 6.483 0 14.48 0c7.997 0 14.48 4.047 14.48 9.04 0 4.993-6.483 9.04-14.48 9.04-1.908 0-3.73-.23-5.397-.649z" id="svgicon_whatsapp_d"></path></defs><g fill="none" fill-rule="evenodd"><circle pid="2" fill-opacity=".03" fill="#000" cx="20" cy="20" r="20"></circle><ellipse pid="3" fill="#E4E4E4" cx="20" cy="36.64" rx="20" ry="1.28"></ellipse><g transform="translate(0 4)"><mask id="svgicon_whatsapp_c" fill="#fff"><use xlink:href="#svgicon_whatsapp_a"></use></mask><use fill="url(#svgicon_whatsapp_b)" xlink:href="#svgicon_whatsapp_a"></use><path pid="4" d="M10.843 17.431L5.28 20.16H3.52l1.4-5.483c-1.978-1.545-3.16-3.505-3.16-5.637C1.76 4.047 8.243 0 16.24 0c7.997 0 14.48 4.047 14.48 9.04 0 4.993-6.483 9.04-14.48 9.04-1.908 0-3.73-.23-5.397-.649z" fill="#414141" mask="url(#svgicon_whatsapp_c)"></path><circle pid="5" fill="#FFF" opacity=".2" mask="url(#svgicon_whatsapp_c)" cx="9.6" cy="8.48" r="1.6"></circle><circle pid="6" fill="#FFF" opacity=".2" mask="url(#svgicon_whatsapp_c)" cx="14.72" cy="8.48" r="1.6"></circle><circle pid="7" fill="#FFF" opacity=".2" mask="url(#svgicon_whatsapp_c)" cx="19.84" cy="8.48" r="1.6"></circle></g><g transform="matrix(-1 0 0 1 40 16)"><mask id="svgicon_whatsapp_g" fill="#fff"><use xlink:href="#svgicon_whatsapp_d"></use></mask><use fill="url(#svgicon_whatsapp_e)" xlink:href="#svgicon_whatsapp_d"></use><path pid="8" d="M7.808 17.112L1.6 20.16H-.16l1.759-6.03C-.21 12.622-1.28 10.75-1.28 8.72c0-4.993 6.483-9.04 14.48-9.04 7.997 0 14.48 4.047 14.48 9.04 0 4.993-6.483 9.04-14.48 9.04-1.906 0-3.725-.23-5.392-.648z" fill="url(#svgicon_whatsapp_f)" mask="url(#svgicon_whatsapp_g)"></path><circle pid="9" fill="#CF3B00" opacity=".413" mask="url(#svgicon_whatsapp_g)" cx="8.64" cy="8.48" r="1.6"></circle><circle pid="10" fill="#CF3B00" opacity=".413" mask="url(#svgicon_whatsapp_g)" cx="13.76" cy="8.48" r="1.6"></circle><circle pid="11" fill="#CF3B00" opacity=".413" mask="url(#svgicon_whatsapp_g)" cx="18.88" cy="8.48" r="1.6"></circle></g></g></svg>